M48
; DRILL file {KiCad 5.1.6} date Sun Aug 16 16:01:49 2020
; FORMAT={-:-/ absolute / inch / decimal}
; #@! TF.CreationDate,2020-08-16T16:01:49+02:00
; #@! TF.GenerationSoftware,Kicad,Pcbnew,5.1.6
FMAT,2
INCH
T1C0.0315
T2C0.0394
T3C0.0433
T4C0.0512
T5C0.1260
%
G90
G05
T1
X2.3811Y-5.2559
X2.3811Y-5.5559
X2.4811Y-5.2559
X2.4811Y-5.5559
X2.5811Y-5.2559
X2.5811Y-5.5559
X2.6811Y-5.2559
X2.6811Y-5.5559
X2.7811Y-5.2559
X2.7811Y-5.5559
X2.8811Y-5.2559
X2.8811Y-5.5559
X2.9811Y-5.2559
X2.9811Y-5.5559
X3.0811Y-5.2559
X3.0811Y-5.5559
X3.1811Y-5.2559
X3.1811Y-5.5559
X3.2811Y-5.2559
X3.2811Y-5.5559
X3.3811Y-5.2559
X3.3811Y-5.5559
X3.4811Y-5.2559
X3.4811Y-5.5559
X3.5811Y-5.2559
X3.5811Y-5.5559
X3.6811Y-5.2559
X3.6811Y-5.5559
X3.987Y-5.171
X3.987Y-5.571
X4.1043Y-5.1709
X4.1043Y-5.5709
T2
X2.2835Y-4.9606
X2.3835Y-4.9606
X2.4835Y-4.9606
X2.5835Y-4.9606
X2.6835Y-4.9606
X2.7835Y-4.9606
X2.8835Y-4.9606
X2.9835Y-4.9606
X3.0835Y-4.9606
X3.1835Y-4.9606
X3.2835Y-4.9606
X3.3835Y-4.9606
X3.4835Y-4.9606
X3.5835Y-4.9606
X3.6835Y-4.9606
X3.7835Y-4.9606
X2.1197Y-5.7283
X2.1197Y-5.8283
X2.2197Y-5.7283
X2.2197Y-5.8283
X2.3197Y-5.7283
X2.3197Y-5.8283
X2.4197Y-5.7283
X2.4197Y-5.8283
X2.5197Y-5.7283
X2.5197Y-5.8283
T3
X4.2323Y-5.1709
X4.2323Y-5.5709
T4
X4.9409Y-5.5118
X2.9724Y-6.122
X3.1693Y-6.122
X3.4055Y-6.122
X3.6024Y-6.122
X4.9409Y-5.315
T5
X2.1063Y-6.1614
X4.9803Y-6.1614
X2.1063Y-5.0197
X4.9803Y-5.0197
T0
M30
