M48
; DRILL file {KiCad 5.1.6} date Sun Sep  6 18:20:01 2020
; FORMAT={-:-/ absolute / inch / decimal}
; #@! TF.CreationDate,2020-09-06T18:20:01+02:00
; #@! TF.GenerationSoftware,Kicad,Pcbnew,5.1.6
FMAT,2
INCH
T1C0.0157
T2C0.0315
T3C0.0394
T4C0.0433
T5C0.0512
T6C0.1260
%
G90
G05
T1
X4.4252Y-5.3307
T2
X2.3811Y-5.2559
X2.3811Y-5.5559
X2.4811Y-5.2559
X2.4811Y-5.5559
X2.5811Y-5.2559
X2.5811Y-5.5559
X2.6811Y-5.2559
X2.6811Y-5.5559
X2.7811Y-5.2559
X2.7811Y-5.5559
X2.8811Y-5.2559
X2.8811Y-5.5559
X2.9811Y-5.2559
X2.9811Y-5.5559
X3.0811Y-5.2559
X3.0811Y-5.5559
X3.1811Y-5.2559
X3.1811Y-5.5559
X3.2811Y-5.2559
X3.2811Y-5.5559
X3.3811Y-5.2559
X3.3811Y-5.5559
X3.4811Y-5.2559
X3.4811Y-5.5559
X3.5811Y-5.2559
X3.5811Y-5.5559
X3.6811Y-5.2559
X3.6811Y-5.5559
X3.9173Y-5.171
X3.9173Y-5.571
X4.0748Y-5.3413
X4.0748Y-5.5413
T3
X2.2835Y-4.9606
X2.3835Y-4.9606
X2.4835Y-4.9606
X2.5835Y-4.9606
X2.6835Y-4.9606
X2.7835Y-4.9606
X2.8835Y-4.9606
X2.9835Y-4.9606
X3.0835Y-4.9606
X3.1835Y-4.9606
X3.2835Y-4.9606
X3.3835Y-4.9606
X3.4835Y-4.9606
X3.5835Y-4.9606
X3.6835Y-4.9606
X3.7835Y-4.9606
X2.3591Y-6.0157
X2.3591Y-6.1157
X2.4591Y-6.0157
X2.4591Y-6.1157
X2.5591Y-6.0157
X2.5591Y-6.1157
X2.6591Y-6.0157
X2.6591Y-6.1157
X2.7591Y-6.0157
X2.7591Y-6.1157
T4
X4.2323Y-5.1709
X4.2323Y-5.5709
T5
X4.9409Y-5.315
X4.9409Y-5.5118
X2.9724Y-6.122
X3.1693Y-6.122
X3.4055Y-6.122
X3.6024Y-6.122
T6
X4.9803Y-6.1614
X2.1063Y-5.0197
X4.9803Y-5.0197
X2.1063Y-6.1614
T0
M30
