%TF.GenerationSoftware,KiCad,Pcbnew,5.1.6*%
%TF.CreationDate,2020-09-06T18:19:59+02:00*%
%TF.ProjectId,volume_detection,766f6c75-6d65-45f6-9465-74656374696f,rev?*%
%TF.SameCoordinates,Original*%
%TF.FileFunction,Legend,Top*%
%TF.FilePolarity,Positive*%
%FSLAX46Y46*%
G04 Gerber Fmt 4.6, Leading zero omitted, Abs format (unit mm)*
G04 Created by KiCad (PCBNEW 5.1.6) date 2020-09-06 18:19:59*
%MOMM*%
%LPD*%
G01*
G04 APERTURE LIST*
%ADD10C,0.300000*%
%ADD11C,0.120000*%
%ADD12C,0.150000*%
G04 APERTURE END LIST*
D10*
X96357142Y-157178571D02*
X96857142Y-158678571D01*
X97357142Y-157178571D01*
X98071428Y-158678571D02*
X97928571Y-158607142D01*
X97857142Y-158535714D01*
X97785714Y-158392857D01*
X97785714Y-157964285D01*
X97857142Y-157821428D01*
X97928571Y-157750000D01*
X98071428Y-157678571D01*
X98285714Y-157678571D01*
X98428571Y-157750000D01*
X98500000Y-157821428D01*
X98571428Y-157964285D01*
X98571428Y-158392857D01*
X98500000Y-158535714D01*
X98428571Y-158607142D01*
X98285714Y-158678571D01*
X98071428Y-158678571D01*
X99428571Y-158678571D02*
X99285714Y-158607142D01*
X99214285Y-158464285D01*
X99214285Y-157178571D01*
X100642857Y-157678571D02*
X100642857Y-158678571D01*
X100000000Y-157678571D02*
X100000000Y-158464285D01*
X100071428Y-158607142D01*
X100214285Y-158678571D01*
X100428571Y-158678571D01*
X100571428Y-158607142D01*
X100642857Y-158535714D01*
X101357142Y-158678571D02*
X101357142Y-157678571D01*
X101357142Y-157821428D02*
X101428571Y-157750000D01*
X101571428Y-157678571D01*
X101785714Y-157678571D01*
X101928571Y-157750000D01*
X102000000Y-157892857D01*
X102000000Y-158678571D01*
X102000000Y-157892857D02*
X102071428Y-157750000D01*
X102214285Y-157678571D01*
X102428571Y-157678571D01*
X102571428Y-157750000D01*
X102642857Y-157892857D01*
X102642857Y-158678571D01*
X103928571Y-158607142D02*
X103785714Y-158678571D01*
X103500000Y-158678571D01*
X103357142Y-158607142D01*
X103285714Y-158464285D01*
X103285714Y-157892857D01*
X103357142Y-157750000D01*
X103500000Y-157678571D01*
X103785714Y-157678571D01*
X103928571Y-157750000D01*
X104000000Y-157892857D01*
X104000000Y-158035714D01*
X103285714Y-158178571D01*
X106428571Y-158678571D02*
X106428571Y-157178571D01*
X106428571Y-158607142D02*
X106285714Y-158678571D01*
X106000000Y-158678571D01*
X105857142Y-158607142D01*
X105785714Y-158535714D01*
X105714285Y-158392857D01*
X105714285Y-157964285D01*
X105785714Y-157821428D01*
X105857142Y-157750000D01*
X106000000Y-157678571D01*
X106285714Y-157678571D01*
X106428571Y-157750000D01*
X107714285Y-158607142D02*
X107571428Y-158678571D01*
X107285714Y-158678571D01*
X107142857Y-158607142D01*
X107071428Y-158464285D01*
X107071428Y-157892857D01*
X107142857Y-157750000D01*
X107285714Y-157678571D01*
X107571428Y-157678571D01*
X107714285Y-157750000D01*
X107785714Y-157892857D01*
X107785714Y-158035714D01*
X107071428Y-158178571D01*
X108214285Y-157678571D02*
X108785714Y-157678571D01*
X108428571Y-157178571D02*
X108428571Y-158464285D01*
X108500000Y-158607142D01*
X108642857Y-158678571D01*
X108785714Y-158678571D01*
X109857142Y-158607142D02*
X109714285Y-158678571D01*
X109428571Y-158678571D01*
X109285714Y-158607142D01*
X109214285Y-158464285D01*
X109214285Y-157892857D01*
X109285714Y-157750000D01*
X109428571Y-157678571D01*
X109714285Y-157678571D01*
X109857142Y-157750000D01*
X109928571Y-157892857D01*
X109928571Y-158035714D01*
X109214285Y-158178571D01*
X111214285Y-158607142D02*
X111071428Y-158678571D01*
X110785714Y-158678571D01*
X110642857Y-158607142D01*
X110571428Y-158535714D01*
X110500000Y-158392857D01*
X110500000Y-157964285D01*
X110571428Y-157821428D01*
X110642857Y-157750000D01*
X110785714Y-157678571D01*
X111071428Y-157678571D01*
X111214285Y-157750000D01*
X111642857Y-157678571D02*
X112214285Y-157678571D01*
X111857142Y-157178571D02*
X111857142Y-158464285D01*
X111928571Y-158607142D01*
X112071428Y-158678571D01*
X112214285Y-158678571D01*
X112714285Y-158678571D02*
X112714285Y-157678571D01*
X112714285Y-157178571D02*
X112642857Y-157250000D01*
X112714285Y-157321428D01*
X112785714Y-157250000D01*
X112714285Y-157178571D01*
X112714285Y-157321428D01*
X113642857Y-158678571D02*
X113500000Y-158607142D01*
X113428571Y-158535714D01*
X113357142Y-158392857D01*
X113357142Y-157964285D01*
X113428571Y-157821428D01*
X113500000Y-157750000D01*
X113642857Y-157678571D01*
X113857142Y-157678571D01*
X114000000Y-157750000D01*
X114071428Y-157821428D01*
X114142857Y-157964285D01*
X114142857Y-158392857D01*
X114071428Y-158535714D01*
X114000000Y-158607142D01*
X113857142Y-158678571D01*
X113642857Y-158678571D01*
X114785714Y-157678571D02*
X114785714Y-158678571D01*
X114785714Y-157821428D02*
X114857142Y-157750000D01*
X115000000Y-157678571D01*
X115214285Y-157678571D01*
X115357142Y-157750000D01*
X115428571Y-157892857D01*
X115428571Y-158678571D01*
X117071428Y-157178571D02*
X117571428Y-158678571D01*
X118071428Y-157178571D01*
X119357142Y-158678571D02*
X118500000Y-158678571D01*
X118928571Y-158678571D02*
X118928571Y-157178571D01*
X118785714Y-157392857D01*
X118642857Y-157535714D01*
X118500000Y-157607142D01*
X120000000Y-158535714D02*
X120071428Y-158607142D01*
X120000000Y-158678571D01*
X119928571Y-158607142D01*
X120000000Y-158535714D01*
X120000000Y-158678571D01*
X121500000Y-158678571D02*
X120642857Y-158678571D01*
X121071428Y-158678571D02*
X121071428Y-157178571D01*
X120928571Y-157392857D01*
X120785714Y-157535714D01*
X120642857Y-157607142D01*
X51885714Y-149178571D02*
X52171428Y-149178571D01*
X52314285Y-149250000D01*
X52457142Y-149392857D01*
X52528571Y-149678571D01*
X52528571Y-150178571D01*
X52457142Y-150464285D01*
X52314285Y-150607142D01*
X52171428Y-150678571D01*
X51885714Y-150678571D01*
X51742857Y-150607142D01*
X51600000Y-150464285D01*
X51528571Y-150178571D01*
X51528571Y-149678571D01*
X51600000Y-149392857D01*
X51742857Y-149250000D01*
X51885714Y-149178571D01*
X53028571Y-149678571D02*
X53385714Y-150678571D01*
X53742857Y-149678571D01*
X54957142Y-150678571D02*
X54957142Y-149178571D01*
X54957142Y-150607142D02*
X54814285Y-150678571D01*
X54528571Y-150678571D01*
X54385714Y-150607142D01*
X54314285Y-150535714D01*
X54242857Y-150392857D01*
X54242857Y-149964285D01*
X54314285Y-149821428D01*
X54385714Y-149750000D01*
X54528571Y-149678571D01*
X54814285Y-149678571D01*
X54957142Y-149750000D01*
X56242857Y-150607142D02*
X56100000Y-150678571D01*
X55814285Y-150678571D01*
X55671428Y-150607142D01*
X55600000Y-150464285D01*
X55600000Y-149892857D01*
X55671428Y-149750000D01*
X55814285Y-149678571D01*
X56100000Y-149678571D01*
X56242857Y-149750000D01*
X56314285Y-149892857D01*
X56314285Y-150035714D01*
X55600000Y-150178571D01*
X56957142Y-150535714D02*
X57028571Y-150607142D01*
X56957142Y-150678571D01*
X56885714Y-150607142D01*
X56957142Y-150535714D01*
X56957142Y-150678571D01*
X57671428Y-150678571D02*
X57671428Y-149178571D01*
X57671428Y-149750000D02*
X57814285Y-149678571D01*
X58100000Y-149678571D01*
X58242857Y-149750000D01*
X58314285Y-149821428D01*
X58385714Y-149964285D01*
X58385714Y-150392857D01*
X58314285Y-150535714D01*
X58242857Y-150607142D01*
X58100000Y-150678571D01*
X57814285Y-150678571D01*
X57671428Y-150607142D01*
X59600000Y-150607142D02*
X59457142Y-150678571D01*
X59171428Y-150678571D01*
X59028571Y-150607142D01*
X58957142Y-150464285D01*
X58957142Y-149892857D01*
X59028571Y-149750000D01*
X59171428Y-149678571D01*
X59457142Y-149678571D01*
X59600000Y-149750000D01*
X59671428Y-149892857D01*
X59671428Y-150035714D01*
X58957142Y-150178571D01*
X92071428Y-150107142D02*
X90928571Y-150107142D01*
X87071428Y-150107142D02*
X85928571Y-150107142D01*
X86500000Y-150678571D02*
X86500000Y-149535714D01*
X81071428Y-150107142D02*
X79928571Y-150107142D01*
X75821428Y-150107142D02*
X74678571Y-150107142D01*
X75250000Y-150678571D02*
X75250000Y-149535714D01*
X129321428Y-144107142D02*
X128178571Y-144107142D01*
X129571428Y-131107142D02*
X128428571Y-131107142D01*
X129000000Y-131678571D02*
X129000000Y-130535714D01*
D11*
%TO.C,C5*%
X76513748Y-144910000D02*
X77036252Y-144910000D01*
X76513748Y-143490000D02*
X77036252Y-143490000D01*
%TO.C,J1*%
X71410000Y-156780000D02*
X58590000Y-156780000D01*
X58590000Y-156780000D02*
X58590000Y-159440000D01*
X58590000Y-159440000D02*
X71410000Y-159440000D01*
X71410000Y-159440000D02*
X71410000Y-156780000D01*
X70460000Y-159440000D02*
X70460000Y-165440000D01*
X70460000Y-165440000D02*
X69700000Y-165440000D01*
X69700000Y-165440000D02*
X69700000Y-159440000D01*
X70400000Y-159440000D02*
X70400000Y-165440000D01*
X70280000Y-159440000D02*
X70280000Y-165440000D01*
X70160000Y-159440000D02*
X70160000Y-165440000D01*
X70040000Y-159440000D02*
X70040000Y-165440000D01*
X69920000Y-159440000D02*
X69920000Y-165440000D01*
X69800000Y-159440000D02*
X69800000Y-165440000D01*
X70460000Y-156382929D02*
X70460000Y-156780000D01*
X69700000Y-156382929D02*
X69700000Y-156780000D01*
X70460000Y-153910000D02*
X70460000Y-154297071D01*
X69700000Y-153910000D02*
X69700000Y-154297071D01*
X68810000Y-156780000D02*
X68810000Y-159440000D01*
X67920000Y-159440000D02*
X67920000Y-165440000D01*
X67920000Y-165440000D02*
X67160000Y-165440000D01*
X67160000Y-165440000D02*
X67160000Y-159440000D01*
X67920000Y-156382929D02*
X67920000Y-156780000D01*
X67160000Y-156382929D02*
X67160000Y-156780000D01*
X67920000Y-153842929D02*
X67920000Y-154297071D01*
X67160000Y-153842929D02*
X67160000Y-154297071D01*
X66270000Y-156780000D02*
X66270000Y-159440000D01*
X65380000Y-159440000D02*
X65380000Y-165440000D01*
X65380000Y-165440000D02*
X64620000Y-165440000D01*
X64620000Y-165440000D02*
X64620000Y-159440000D01*
X65380000Y-156382929D02*
X65380000Y-156780000D01*
X64620000Y-156382929D02*
X64620000Y-156780000D01*
X65380000Y-153842929D02*
X65380000Y-154297071D01*
X64620000Y-153842929D02*
X64620000Y-154297071D01*
X63730000Y-156780000D02*
X63730000Y-159440000D01*
X62840000Y-159440000D02*
X62840000Y-165440000D01*
X62840000Y-165440000D02*
X62080000Y-165440000D01*
X62080000Y-165440000D02*
X62080000Y-159440000D01*
X62840000Y-156382929D02*
X62840000Y-156780000D01*
X62080000Y-156382929D02*
X62080000Y-156780000D01*
X62840000Y-153842929D02*
X62840000Y-154297071D01*
X62080000Y-153842929D02*
X62080000Y-154297071D01*
X61190000Y-156780000D02*
X61190000Y-159440000D01*
X60300000Y-159440000D02*
X60300000Y-165440000D01*
X60300000Y-165440000D02*
X59540000Y-165440000D01*
X59540000Y-165440000D02*
X59540000Y-159440000D01*
X60300000Y-156382929D02*
X60300000Y-156780000D01*
X59540000Y-156382929D02*
X59540000Y-156780000D01*
X60300000Y-153842929D02*
X60300000Y-154297071D01*
X59540000Y-153842929D02*
X59540000Y-154297071D01*
X70080000Y-151530000D02*
X71350000Y-151530000D01*
X71350000Y-151530000D02*
X71350000Y-152800000D01*
%TO.C,C1*%
X112790000Y-141213748D02*
X112790000Y-141736252D01*
X114210000Y-141213748D02*
X114210000Y-141736252D01*
%TO.C,C2*%
X100263748Y-143290000D02*
X100786252Y-143290000D01*
X100263748Y-144710000D02*
X100786252Y-144710000D01*
%TO.C,C3*%
X77143452Y-131728600D02*
X76620948Y-131728600D01*
X77143452Y-130308600D02*
X76620948Y-130308600D01*
%TO.C,C4*%
X119040000Y-137213748D02*
X119040000Y-137736252D01*
X120460000Y-137213748D02*
X120460000Y-137736252D01*
%TO.C,Co1*%
X105250000Y-129310000D02*
X105250000Y-128810000D01*
X105500000Y-129060000D02*
X105000000Y-129060000D01*
X104760000Y-126304437D02*
X103695563Y-125240000D01*
X104760000Y-128695563D02*
X103695563Y-129760000D01*
X104760000Y-128695563D02*
X104760000Y-128560000D01*
X104760000Y-126304437D02*
X104760000Y-126440000D01*
X103695563Y-125240000D02*
X100240000Y-125240000D01*
X103695563Y-129760000D02*
X100240000Y-129760000D01*
X100240000Y-129760000D02*
X100240000Y-128560000D01*
X100240000Y-125240000D02*
X100240000Y-126440000D01*
%TO.C,Ct1*%
X112486252Y-129790000D02*
X111963748Y-129790000D01*
X112486252Y-131210000D02*
X111963748Y-131210000D01*
%TO.C,D1*%
X106030000Y-138360000D02*
X108970000Y-138360000D01*
X106030000Y-138120000D02*
X108970000Y-138120000D01*
X106030000Y-138240000D02*
X108970000Y-138240000D01*
X107500000Y-132680000D02*
X107500000Y-133700000D01*
X107500000Y-140160000D02*
X107500000Y-139140000D01*
X106030000Y-133700000D02*
X106030000Y-139140000D01*
X108970000Y-133700000D02*
X106030000Y-133700000D01*
X108970000Y-139140000D02*
X108970000Y-133700000D01*
X106030000Y-139140000D02*
X108970000Y-139140000D01*
%TO.C,J2*%
X72700000Y-159800000D02*
X74700000Y-159800000D01*
X72700000Y-157560000D02*
X72700000Y-159800000D01*
X79320000Y-156476000D02*
X79226000Y-156569000D01*
X81570000Y-154225000D02*
X81511000Y-154284000D01*
X79490000Y-156716000D02*
X79431000Y-156774000D01*
X81775000Y-154431000D02*
X81681000Y-154524000D01*
X83060000Y-151440000D02*
X83060000Y-159560000D01*
X72940000Y-151440000D02*
X72940000Y-159560000D01*
X72940000Y-159560000D02*
X83060000Y-159560000D01*
X72940000Y-151440000D02*
X83060000Y-151440000D01*
X72940000Y-153500000D02*
X83060000Y-153500000D01*
X72940000Y-157500000D02*
X83060000Y-157500000D01*
X82180000Y-155500000D02*
G75*
G03*
X82180000Y-155500000I-1680000J0D01*
G01*
X76288712Y-156983352D02*
G75*
G02*
X75500000Y-157180000I-788712J1483352D01*
G01*
X76983953Y-154710912D02*
G75*
G02*
X76984000Y-156289000I-1483953J-789088D01*
G01*
X74710912Y-154016047D02*
G75*
G02*
X76289000Y-154016000I789088J-1483953D01*
G01*
X74016047Y-156289088D02*
G75*
G02*
X74016000Y-154711000I1483953J789088D01*
G01*
X75529383Y-157180450D02*
G75*
G02*
X74711000Y-156984000I-29383J1680450D01*
G01*
%TO.C,J3*%
X83700000Y-159800000D02*
X85700000Y-159800000D01*
X83700000Y-157560000D02*
X83700000Y-159800000D01*
X90320000Y-156476000D02*
X90226000Y-156569000D01*
X92570000Y-154225000D02*
X92511000Y-154284000D01*
X90490000Y-156716000D02*
X90431000Y-156774000D01*
X92775000Y-154431000D02*
X92681000Y-154524000D01*
X94060000Y-151440000D02*
X94060000Y-159560000D01*
X83940000Y-151440000D02*
X83940000Y-159560000D01*
X83940000Y-159560000D02*
X94060000Y-159560000D01*
X83940000Y-151440000D02*
X94060000Y-151440000D01*
X83940000Y-153500000D02*
X94060000Y-153500000D01*
X83940000Y-157500000D02*
X94060000Y-157500000D01*
X93180000Y-155500000D02*
G75*
G03*
X93180000Y-155500000I-1680000J0D01*
G01*
X87288712Y-156983352D02*
G75*
G02*
X86500000Y-157180000I-788712J1483352D01*
G01*
X87983953Y-154710912D02*
G75*
G02*
X87984000Y-156289000I-1483953J-789088D01*
G01*
X85710912Y-154016047D02*
G75*
G02*
X87289000Y-154016000I789088J-1483953D01*
G01*
X85016047Y-156289088D02*
G75*
G02*
X85016000Y-154711000I1483953J789088D01*
G01*
X86529383Y-157180450D02*
G75*
G02*
X85711000Y-156984000I-29383J1680450D01*
G01*
%TO.C,J4*%
X127180000Y-135000000D02*
G75*
G03*
X127180000Y-135000000I-1680000J0D01*
G01*
X127500000Y-142560000D02*
X127500000Y-132440000D01*
X123500000Y-142560000D02*
X123500000Y-132440000D01*
X121440000Y-142560000D02*
X121440000Y-132440000D01*
X129560000Y-142560000D02*
X129560000Y-132440000D01*
X121440000Y-142560000D02*
X129560000Y-142560000D01*
X121440000Y-132440000D02*
X129560000Y-132440000D01*
X124431000Y-133725000D02*
X124524000Y-133819000D01*
X126716000Y-136010000D02*
X126774000Y-136069000D01*
X124225000Y-133930000D02*
X124284000Y-133989000D01*
X126476000Y-136180000D02*
X126569000Y-136274000D01*
X127560000Y-142800000D02*
X129800000Y-142800000D01*
X129800000Y-142800000D02*
X129800000Y-140800000D01*
X127180450Y-139970617D02*
G75*
G02*
X126984000Y-140789000I-1680450J-29383D01*
G01*
X126289088Y-141483953D02*
G75*
G02*
X124711000Y-141484000I-789088J1483953D01*
G01*
X124016047Y-140789088D02*
G75*
G02*
X124016000Y-139211000I1483953J789088D01*
G01*
X124710912Y-138516047D02*
G75*
G02*
X126289000Y-138516000I789088J-1483953D01*
G01*
X126983352Y-139211288D02*
G75*
G02*
X127180000Y-140000000I-1483352J-788712D01*
G01*
%TO.C,LCd1*%
X56670000Y-127330000D02*
X56670000Y-126000000D01*
X58000000Y-127330000D02*
X56670000Y-127330000D01*
X59270000Y-127330000D02*
X59270000Y-124670000D01*
X59270000Y-124670000D02*
X97430000Y-124670000D01*
X59270000Y-127330000D02*
X97430000Y-127330000D01*
X97430000Y-127330000D02*
X97430000Y-124670000D01*
%TO.C,R1*%
X110540000Y-141213748D02*
X110540000Y-141736252D01*
X111960000Y-141213748D02*
X111960000Y-141736252D01*
%TO.C,R2*%
X108313748Y-128210000D02*
X108836252Y-128210000D01*
X108313748Y-126790000D02*
X108836252Y-126790000D01*
%TO.C,R3*%
X94761252Y-131710000D02*
X94238748Y-131710000D01*
X94761252Y-130290000D02*
X94238748Y-130290000D01*
%TO.C,R4*%
X61286748Y-129798200D02*
X61809252Y-129798200D01*
X61286748Y-128378200D02*
X61809252Y-128378200D01*
%TO.C,R5*%
X65886252Y-129792800D02*
X65363748Y-129792800D01*
X65886252Y-128372800D02*
X65363748Y-128372800D01*
%TO.C,R6*%
X81284948Y-147540000D02*
X81807452Y-147540000D01*
X81284948Y-148960000D02*
X81807452Y-148960000D01*
%TO.C,R7*%
X77213748Y-148960000D02*
X77736252Y-148960000D01*
X77213748Y-147540000D02*
X77736252Y-147540000D01*
%TO.C,R8*%
X86684252Y-147540000D02*
X86161748Y-147540000D01*
X86684252Y-148960000D02*
X86161748Y-148960000D01*
%TO.C,R9*%
X90639252Y-148960000D02*
X90116748Y-148960000D01*
X90639252Y-147540000D02*
X90116748Y-147540000D01*
%TO.C,Rsc1*%
X119036252Y-133710000D02*
X118513748Y-133710000D01*
X119036252Y-132290000D02*
X118513748Y-132290000D01*
%TO.C,U1*%
X115560000Y-135500000D02*
X115560000Y-132050000D01*
X115560000Y-135500000D02*
X115560000Y-137450000D01*
X110440000Y-135500000D02*
X110440000Y-133550000D01*
X110440000Y-135500000D02*
X110440000Y-137450000D01*
%TO.C,U2*%
X94830000Y-139960000D02*
X94830000Y-138310000D01*
X59150000Y-139960000D02*
X94830000Y-139960000D01*
X59150000Y-134660000D02*
X59150000Y-139960000D01*
X94830000Y-134660000D02*
X59150000Y-134660000D01*
X94830000Y-136310000D02*
X94830000Y-134660000D01*
X94830000Y-138310000D02*
G75*
G02*
X94830000Y-136310000I0J1000000D01*
G01*
%TO.C,L1*%
X105270000Y-140750000D02*
G75*
G03*
X105270000Y-140750000I-1770000J0D01*
G01*
X103500000Y-138980000D02*
X103500000Y-136770000D01*
%TO.C,L2*%
X100970000Y-133003400D02*
X98030000Y-133003400D01*
X98030000Y-133003400D02*
X98030000Y-139843400D01*
X98030000Y-139843400D02*
X100970000Y-139843400D01*
X100970000Y-139843400D02*
X100970000Y-133003400D01*
X99500000Y-132383400D02*
X99500000Y-133003400D01*
X99500000Y-140463400D02*
X99500000Y-139843400D01*
%TO.C,C5*%
D12*
X76608333Y-142907142D02*
X76560714Y-142954761D01*
X76417857Y-143002380D01*
X76322619Y-143002380D01*
X76179761Y-142954761D01*
X76084523Y-142859523D01*
X76036904Y-142764285D01*
X75989285Y-142573809D01*
X75989285Y-142430952D01*
X76036904Y-142240476D01*
X76084523Y-142145238D01*
X76179761Y-142050000D01*
X76322619Y-142002380D01*
X76417857Y-142002380D01*
X76560714Y-142050000D01*
X76608333Y-142097619D01*
X77513095Y-142002380D02*
X77036904Y-142002380D01*
X76989285Y-142478571D01*
X77036904Y-142430952D01*
X77132142Y-142383333D01*
X77370238Y-142383333D01*
X77465476Y-142430952D01*
X77513095Y-142478571D01*
X77560714Y-142573809D01*
X77560714Y-142811904D01*
X77513095Y-142907142D01*
X77465476Y-142954761D01*
X77370238Y-143002380D01*
X77132142Y-143002380D01*
X77036904Y-142954761D01*
X76989285Y-142907142D01*
%TO.C,J1*%
X64666666Y-157452380D02*
X64666666Y-158166666D01*
X64619047Y-158309523D01*
X64523809Y-158404761D01*
X64380952Y-158452380D01*
X64285714Y-158452380D01*
X65666666Y-158452380D02*
X65095238Y-158452380D01*
X65380952Y-158452380D02*
X65380952Y-157452380D01*
X65285714Y-157595238D01*
X65190476Y-157690476D01*
X65095238Y-157738095D01*
%TO.C,C1*%
X113583333Y-144607142D02*
X113535714Y-144654761D01*
X113392857Y-144702380D01*
X113297619Y-144702380D01*
X113154761Y-144654761D01*
X113059523Y-144559523D01*
X113011904Y-144464285D01*
X112964285Y-144273809D01*
X112964285Y-144130952D01*
X113011904Y-143940476D01*
X113059523Y-143845238D01*
X113154761Y-143750000D01*
X113297619Y-143702380D01*
X113392857Y-143702380D01*
X113535714Y-143750000D01*
X113583333Y-143797619D01*
X114535714Y-144702380D02*
X113964285Y-144702380D01*
X114250000Y-144702380D02*
X114250000Y-143702380D01*
X114154761Y-143845238D01*
X114059523Y-143940476D01*
X113964285Y-143988095D01*
%TO.C,C2*%
X99383333Y-146107142D02*
X99335714Y-146154761D01*
X99192857Y-146202380D01*
X99097619Y-146202380D01*
X98954761Y-146154761D01*
X98859523Y-146059523D01*
X98811904Y-145964285D01*
X98764285Y-145773809D01*
X98764285Y-145630952D01*
X98811904Y-145440476D01*
X98859523Y-145345238D01*
X98954761Y-145250000D01*
X99097619Y-145202380D01*
X99192857Y-145202380D01*
X99335714Y-145250000D01*
X99383333Y-145297619D01*
X99764285Y-145297619D02*
X99811904Y-145250000D01*
X99907142Y-145202380D01*
X100145238Y-145202380D01*
X100240476Y-145250000D01*
X100288095Y-145297619D01*
X100335714Y-145392857D01*
X100335714Y-145488095D01*
X100288095Y-145630952D01*
X99716666Y-146202380D01*
X100335714Y-146202380D01*
%TO.C,C3*%
X75614333Y-129750142D02*
X75566714Y-129797761D01*
X75423857Y-129845380D01*
X75328619Y-129845380D01*
X75185761Y-129797761D01*
X75090523Y-129702523D01*
X75042904Y-129607285D01*
X74995285Y-129416809D01*
X74995285Y-129273952D01*
X75042904Y-129083476D01*
X75090523Y-128988238D01*
X75185761Y-128893000D01*
X75328619Y-128845380D01*
X75423857Y-128845380D01*
X75566714Y-128893000D01*
X75614333Y-128940619D01*
X75947666Y-128845380D02*
X76566714Y-128845380D01*
X76233380Y-129226333D01*
X76376238Y-129226333D01*
X76471476Y-129273952D01*
X76519095Y-129321571D01*
X76566714Y-129416809D01*
X76566714Y-129654904D01*
X76519095Y-129750142D01*
X76471476Y-129797761D01*
X76376238Y-129845380D01*
X76090523Y-129845380D01*
X75995285Y-129797761D01*
X75947666Y-129750142D01*
%TO.C,C4*%
X119333333Y-135357142D02*
X119285714Y-135404761D01*
X119142857Y-135452380D01*
X119047619Y-135452380D01*
X118904761Y-135404761D01*
X118809523Y-135309523D01*
X118761904Y-135214285D01*
X118714285Y-135023809D01*
X118714285Y-134880952D01*
X118761904Y-134690476D01*
X118809523Y-134595238D01*
X118904761Y-134500000D01*
X119047619Y-134452380D01*
X119142857Y-134452380D01*
X119285714Y-134500000D01*
X119333333Y-134547619D01*
X120190476Y-134785714D02*
X120190476Y-135452380D01*
X119952380Y-134404761D02*
X119714285Y-135119047D01*
X120333333Y-135119047D01*
%TO.C,Co1*%
X105630952Y-125857142D02*
X105583333Y-125904761D01*
X105440476Y-125952380D01*
X105345238Y-125952380D01*
X105202380Y-125904761D01*
X105107142Y-125809523D01*
X105059523Y-125714285D01*
X105011904Y-125523809D01*
X105011904Y-125380952D01*
X105059523Y-125190476D01*
X105107142Y-125095238D01*
X105202380Y-125000000D01*
X105345238Y-124952380D01*
X105440476Y-124952380D01*
X105583333Y-125000000D01*
X105630952Y-125047619D01*
X106202380Y-125952380D02*
X106107142Y-125904761D01*
X106059523Y-125857142D01*
X106011904Y-125761904D01*
X106011904Y-125476190D01*
X106059523Y-125380952D01*
X106107142Y-125333333D01*
X106202380Y-125285714D01*
X106345238Y-125285714D01*
X106440476Y-125333333D01*
X106488095Y-125380952D01*
X106535714Y-125476190D01*
X106535714Y-125761904D01*
X106488095Y-125857142D01*
X106440476Y-125904761D01*
X106345238Y-125952380D01*
X106202380Y-125952380D01*
X107488095Y-125952380D02*
X106916666Y-125952380D01*
X107202380Y-125952380D02*
X107202380Y-124952380D01*
X107107142Y-125095238D01*
X107011904Y-125190476D01*
X106916666Y-125238095D01*
%TO.C,Ct1*%
X111022619Y-129107142D02*
X110975000Y-129154761D01*
X110832142Y-129202380D01*
X110736904Y-129202380D01*
X110594047Y-129154761D01*
X110498809Y-129059523D01*
X110451190Y-128964285D01*
X110403571Y-128773809D01*
X110403571Y-128630952D01*
X110451190Y-128440476D01*
X110498809Y-128345238D01*
X110594047Y-128250000D01*
X110736904Y-128202380D01*
X110832142Y-128202380D01*
X110975000Y-128250000D01*
X111022619Y-128297619D01*
X111308333Y-128535714D02*
X111689285Y-128535714D01*
X111451190Y-128202380D02*
X111451190Y-129059523D01*
X111498809Y-129154761D01*
X111594047Y-129202380D01*
X111689285Y-129202380D01*
X112546428Y-129202380D02*
X111975000Y-129202380D01*
X112260714Y-129202380D02*
X112260714Y-128202380D01*
X112165476Y-128345238D01*
X112070238Y-128440476D01*
X111975000Y-128488095D01*
%TO.C,D1*%
X107952380Y-136738095D02*
X106952380Y-136738095D01*
X106952380Y-136500000D01*
X107000000Y-136357142D01*
X107095238Y-136261904D01*
X107190476Y-136214285D01*
X107380952Y-136166666D01*
X107523809Y-136166666D01*
X107714285Y-136214285D01*
X107809523Y-136261904D01*
X107904761Y-136357142D01*
X107952380Y-136500000D01*
X107952380Y-136738095D01*
X107952380Y-135214285D02*
X107952380Y-135785714D01*
X107952380Y-135500000D02*
X106952380Y-135500000D01*
X107095238Y-135595238D01*
X107190476Y-135690476D01*
X107238095Y-135785714D01*
%TO.C,J2*%
X77691266Y-157928380D02*
X77691266Y-158642666D01*
X77643647Y-158785523D01*
X77548409Y-158880761D01*
X77405552Y-158928380D01*
X77310314Y-158928380D01*
X78119838Y-158023619D02*
X78167457Y-157976000D01*
X78262695Y-157928380D01*
X78500790Y-157928380D01*
X78596028Y-157976000D01*
X78643647Y-158023619D01*
X78691266Y-158118857D01*
X78691266Y-158214095D01*
X78643647Y-158356952D01*
X78072219Y-158928380D01*
X78691266Y-158928380D01*
%TO.C,J3*%
X88664066Y-157928380D02*
X88664066Y-158642666D01*
X88616447Y-158785523D01*
X88521209Y-158880761D01*
X88378352Y-158928380D01*
X88283114Y-158928380D01*
X89045019Y-157928380D02*
X89664066Y-157928380D01*
X89330733Y-158309333D01*
X89473590Y-158309333D01*
X89568828Y-158356952D01*
X89616447Y-158404571D01*
X89664066Y-158499809D01*
X89664066Y-158737904D01*
X89616447Y-158833142D01*
X89568828Y-158880761D01*
X89473590Y-158928380D01*
X89187876Y-158928380D01*
X89092638Y-158880761D01*
X89045019Y-158833142D01*
%TO.C,J4*%
X127952380Y-137833333D02*
X128666666Y-137833333D01*
X128809523Y-137880952D01*
X128904761Y-137976190D01*
X128952380Y-138119047D01*
X128952380Y-138214285D01*
X128285714Y-136928571D02*
X128952380Y-136928571D01*
X127904761Y-137166666D02*
X128619047Y-137404761D01*
X128619047Y-136785714D01*
X122035714Y-144071428D02*
X122797619Y-144071428D01*
X122416666Y-144452380D02*
X122416666Y-143690476D01*
X123797619Y-144452380D02*
X123226190Y-144452380D01*
X123511904Y-144452380D02*
X123511904Y-143452380D01*
X123416666Y-143595238D01*
X123321428Y-143690476D01*
X123226190Y-143738095D01*
X124178571Y-143547619D02*
X124226190Y-143500000D01*
X124321428Y-143452380D01*
X124559523Y-143452380D01*
X124654761Y-143500000D01*
X124702380Y-143547619D01*
X124750000Y-143642857D01*
X124750000Y-143738095D01*
X124702380Y-143880952D01*
X124130952Y-144452380D01*
X124750000Y-144452380D01*
X125083333Y-143785714D02*
X125321428Y-144452380D01*
X125559523Y-143785714D01*
%TO.C,R1*%
X111083333Y-144702380D02*
X110750000Y-144226190D01*
X110511904Y-144702380D02*
X110511904Y-143702380D01*
X110892857Y-143702380D01*
X110988095Y-143750000D01*
X111035714Y-143797619D01*
X111083333Y-143892857D01*
X111083333Y-144035714D01*
X111035714Y-144130952D01*
X110988095Y-144178571D01*
X110892857Y-144226190D01*
X110511904Y-144226190D01*
X112035714Y-144702380D02*
X111464285Y-144702380D01*
X111750000Y-144702380D02*
X111750000Y-143702380D01*
X111654761Y-143845238D01*
X111559523Y-143940476D01*
X111464285Y-143988095D01*
%TO.C,R2*%
X110183333Y-125952380D02*
X109850000Y-125476190D01*
X109611904Y-125952380D02*
X109611904Y-124952380D01*
X109992857Y-124952380D01*
X110088095Y-125000000D01*
X110135714Y-125047619D01*
X110183333Y-125142857D01*
X110183333Y-125285714D01*
X110135714Y-125380952D01*
X110088095Y-125428571D01*
X109992857Y-125476190D01*
X109611904Y-125476190D01*
X110564285Y-125047619D02*
X110611904Y-125000000D01*
X110707142Y-124952380D01*
X110945238Y-124952380D01*
X111040476Y-125000000D01*
X111088095Y-125047619D01*
X111135714Y-125142857D01*
X111135714Y-125238095D01*
X111088095Y-125380952D01*
X110516666Y-125952380D01*
X111135714Y-125952380D01*
%TO.C,R3*%
X93333333Y-129702380D02*
X93000000Y-129226190D01*
X92761904Y-129702380D02*
X92761904Y-128702380D01*
X93142857Y-128702380D01*
X93238095Y-128750000D01*
X93285714Y-128797619D01*
X93333333Y-128892857D01*
X93333333Y-129035714D01*
X93285714Y-129130952D01*
X93238095Y-129178571D01*
X93142857Y-129226190D01*
X92761904Y-129226190D01*
X93666666Y-128702380D02*
X94285714Y-128702380D01*
X93952380Y-129083333D01*
X94095238Y-129083333D01*
X94190476Y-129130952D01*
X94238095Y-129178571D01*
X94285714Y-129273809D01*
X94285714Y-129511904D01*
X94238095Y-129607142D01*
X94190476Y-129654761D01*
X94095238Y-129702380D01*
X93809523Y-129702380D01*
X93714285Y-129654761D01*
X93666666Y-129607142D01*
%TO.C,R4*%
X60475933Y-131369380D02*
X60142600Y-130893190D01*
X59904504Y-131369380D02*
X59904504Y-130369380D01*
X60285457Y-130369380D01*
X60380695Y-130417000D01*
X60428314Y-130464619D01*
X60475933Y-130559857D01*
X60475933Y-130702714D01*
X60428314Y-130797952D01*
X60380695Y-130845571D01*
X60285457Y-130893190D01*
X59904504Y-130893190D01*
X61333076Y-130702714D02*
X61333076Y-131369380D01*
X61094980Y-130321761D02*
X60856885Y-131036047D01*
X61475933Y-131036047D01*
%TO.C,R5*%
X66465333Y-127680980D02*
X66132000Y-127204790D01*
X65893904Y-127680980D02*
X65893904Y-126680980D01*
X66274857Y-126680980D01*
X66370095Y-126728600D01*
X66417714Y-126776219D01*
X66465333Y-126871457D01*
X66465333Y-127014314D01*
X66417714Y-127109552D01*
X66370095Y-127157171D01*
X66274857Y-127204790D01*
X65893904Y-127204790D01*
X67370095Y-126680980D02*
X66893904Y-126680980D01*
X66846285Y-127157171D01*
X66893904Y-127109552D01*
X66989142Y-127061933D01*
X67227238Y-127061933D01*
X67322476Y-127109552D01*
X67370095Y-127157171D01*
X67417714Y-127252409D01*
X67417714Y-127490504D01*
X67370095Y-127585742D01*
X67322476Y-127633361D01*
X67227238Y-127680980D01*
X66989142Y-127680980D01*
X66893904Y-127633361D01*
X66846285Y-127585742D01*
%TO.C,R6*%
X81379533Y-147052380D02*
X81046200Y-146576190D01*
X80808104Y-147052380D02*
X80808104Y-146052380D01*
X81189057Y-146052380D01*
X81284295Y-146100000D01*
X81331914Y-146147619D01*
X81379533Y-146242857D01*
X81379533Y-146385714D01*
X81331914Y-146480952D01*
X81284295Y-146528571D01*
X81189057Y-146576190D01*
X80808104Y-146576190D01*
X82236676Y-146052380D02*
X82046200Y-146052380D01*
X81950961Y-146100000D01*
X81903342Y-146147619D01*
X81808104Y-146290476D01*
X81760485Y-146480952D01*
X81760485Y-146861904D01*
X81808104Y-146957142D01*
X81855723Y-147004761D01*
X81950961Y-147052380D01*
X82141438Y-147052380D01*
X82236676Y-147004761D01*
X82284295Y-146957142D01*
X82331914Y-146861904D01*
X82331914Y-146623809D01*
X82284295Y-146528571D01*
X82236676Y-146480952D01*
X82141438Y-146433333D01*
X81950961Y-146433333D01*
X81855723Y-146480952D01*
X81808104Y-146528571D01*
X81760485Y-146623809D01*
%TO.C,R7*%
X77308333Y-147052380D02*
X76975000Y-146576190D01*
X76736904Y-147052380D02*
X76736904Y-146052380D01*
X77117857Y-146052380D01*
X77213095Y-146100000D01*
X77260714Y-146147619D01*
X77308333Y-146242857D01*
X77308333Y-146385714D01*
X77260714Y-146480952D01*
X77213095Y-146528571D01*
X77117857Y-146576190D01*
X76736904Y-146576190D01*
X77641666Y-146052380D02*
X78308333Y-146052380D01*
X77879761Y-147052380D01*
%TO.C,R8*%
X85282133Y-147102180D02*
X84948800Y-146625990D01*
X84710704Y-147102180D02*
X84710704Y-146102180D01*
X85091657Y-146102180D01*
X85186895Y-146149800D01*
X85234514Y-146197419D01*
X85282133Y-146292657D01*
X85282133Y-146435514D01*
X85234514Y-146530752D01*
X85186895Y-146578371D01*
X85091657Y-146625990D01*
X84710704Y-146625990D01*
X85853561Y-146530752D02*
X85758323Y-146483133D01*
X85710704Y-146435514D01*
X85663085Y-146340276D01*
X85663085Y-146292657D01*
X85710704Y-146197419D01*
X85758323Y-146149800D01*
X85853561Y-146102180D01*
X86044038Y-146102180D01*
X86139276Y-146149800D01*
X86186895Y-146197419D01*
X86234514Y-146292657D01*
X86234514Y-146340276D01*
X86186895Y-146435514D01*
X86139276Y-146483133D01*
X86044038Y-146530752D01*
X85853561Y-146530752D01*
X85758323Y-146578371D01*
X85710704Y-146625990D01*
X85663085Y-146721228D01*
X85663085Y-146911704D01*
X85710704Y-147006942D01*
X85758323Y-147054561D01*
X85853561Y-147102180D01*
X86044038Y-147102180D01*
X86139276Y-147054561D01*
X86186895Y-147006942D01*
X86234514Y-146911704D01*
X86234514Y-146721228D01*
X86186895Y-146625990D01*
X86139276Y-146578371D01*
X86044038Y-146530752D01*
%TO.C,R9*%
X89287933Y-147076780D02*
X88954600Y-146600590D01*
X88716504Y-147076780D02*
X88716504Y-146076780D01*
X89097457Y-146076780D01*
X89192695Y-146124400D01*
X89240314Y-146172019D01*
X89287933Y-146267257D01*
X89287933Y-146410114D01*
X89240314Y-146505352D01*
X89192695Y-146552971D01*
X89097457Y-146600590D01*
X88716504Y-146600590D01*
X89764123Y-147076780D02*
X89954600Y-147076780D01*
X90049838Y-147029161D01*
X90097457Y-146981542D01*
X90192695Y-146838685D01*
X90240314Y-146648209D01*
X90240314Y-146267257D01*
X90192695Y-146172019D01*
X90145076Y-146124400D01*
X90049838Y-146076780D01*
X89859361Y-146076780D01*
X89764123Y-146124400D01*
X89716504Y-146172019D01*
X89668885Y-146267257D01*
X89668885Y-146505352D01*
X89716504Y-146600590D01*
X89764123Y-146648209D01*
X89859361Y-146695828D01*
X90049838Y-146695828D01*
X90145076Y-146648209D01*
X90192695Y-146600590D01*
X90240314Y-146505352D01*
%TO.C,Rsc1*%
X117750000Y-131702380D02*
X117416666Y-131226190D01*
X117178571Y-131702380D02*
X117178571Y-130702380D01*
X117559523Y-130702380D01*
X117654761Y-130750000D01*
X117702380Y-130797619D01*
X117750000Y-130892857D01*
X117750000Y-131035714D01*
X117702380Y-131130952D01*
X117654761Y-131178571D01*
X117559523Y-131226190D01*
X117178571Y-131226190D01*
X118130952Y-131654761D02*
X118226190Y-131702380D01*
X118416666Y-131702380D01*
X118511904Y-131654761D01*
X118559523Y-131559523D01*
X118559523Y-131511904D01*
X118511904Y-131416666D01*
X118416666Y-131369047D01*
X118273809Y-131369047D01*
X118178571Y-131321428D01*
X118130952Y-131226190D01*
X118130952Y-131178571D01*
X118178571Y-131083333D01*
X118273809Y-131035714D01*
X118416666Y-131035714D01*
X118511904Y-131083333D01*
X119416666Y-131654761D02*
X119321428Y-131702380D01*
X119130952Y-131702380D01*
X119035714Y-131654761D01*
X118988095Y-131607142D01*
X118940476Y-131511904D01*
X118940476Y-131226190D01*
X118988095Y-131130952D01*
X119035714Y-131083333D01*
X119130952Y-131035714D01*
X119321428Y-131035714D01*
X119416666Y-131083333D01*
X120369047Y-131702380D02*
X119797619Y-131702380D01*
X120083333Y-131702380D02*
X120083333Y-130702380D01*
X119988095Y-130845238D01*
X119892857Y-130940476D01*
X119797619Y-130988095D01*
%TO.C,U1*%
X112452380Y-136261904D02*
X113261904Y-136261904D01*
X113357142Y-136214285D01*
X113404761Y-136166666D01*
X113452380Y-136071428D01*
X113452380Y-135880952D01*
X113404761Y-135785714D01*
X113357142Y-135738095D01*
X113261904Y-135690476D01*
X112452380Y-135690476D01*
X113452380Y-134690476D02*
X113452380Y-135261904D01*
X113452380Y-134976190D02*
X112452380Y-134976190D01*
X112595238Y-135071428D01*
X112690476Y-135166666D01*
X112738095Y-135261904D01*
%TO.C,U2*%
X95282380Y-138071904D02*
X96091904Y-138071904D01*
X96187142Y-138024285D01*
X96234761Y-137976666D01*
X96282380Y-137881428D01*
X96282380Y-137690952D01*
X96234761Y-137595714D01*
X96187142Y-137548095D01*
X96091904Y-137500476D01*
X95282380Y-137500476D01*
X95377619Y-137071904D02*
X95330000Y-137024285D01*
X95282380Y-136929047D01*
X95282380Y-136690952D01*
X95330000Y-136595714D01*
X95377619Y-136548095D01*
X95472857Y-136500476D01*
X95568095Y-136500476D01*
X95710952Y-136548095D01*
X96282380Y-137119523D01*
X96282380Y-136500476D01*
%TO.C,L1*%
X103952380Y-137916666D02*
X103952380Y-138392857D01*
X102952380Y-138392857D01*
X103952380Y-137059523D02*
X103952380Y-137630952D01*
X103952380Y-137345238D02*
X102952380Y-137345238D01*
X103095238Y-137440476D01*
X103190476Y-137535714D01*
X103238095Y-137630952D01*
%TO.C,L2*%
X99952380Y-136666666D02*
X99952380Y-137142857D01*
X98952380Y-137142857D01*
X99047619Y-136380952D02*
X99000000Y-136333333D01*
X98952380Y-136238095D01*
X98952380Y-136000000D01*
X99000000Y-135904761D01*
X99047619Y-135857142D01*
X99142857Y-135809523D01*
X99238095Y-135809523D01*
X99380952Y-135857142D01*
X99952380Y-136428571D01*
X99952380Y-135809523D01*
%TD*%
M02*
