%TF.GenerationSoftware,KiCad,Pcbnew,5.1.6*%
%TF.CreationDate,2020-08-16T16:00:55+02:00*%
%TF.ProjectId,volume_detection,766f6c75-6d65-45f6-9465-74656374696f,rev?*%
%TF.SameCoordinates,Original*%
%TF.FileFunction,Soldermask,Top*%
%TF.FilePolarity,Negative*%
%FSLAX46Y46*%
G04 Gerber Fmt 4.6, Leading zero omitted, Abs format (unit mm)*
G04 Created by KiCad (PCBNEW 5.1.6) date 2020-08-16 16:00:55*
%MOMM*%
%LPD*%
G01*
G04 APERTURE LIST*
%ADD10O,1.700000X1.700000*%
%ADD11C,1.700000*%
%ADD12C,3.300000*%
%ADD13R,2.300000X2.300000*%
%ADD14O,2.300000X2.300000*%
%ADD15R,1.800000X1.800000*%
%ADD16O,1.800000X1.800000*%
%ADD17R,2.600000X2.600000*%
%ADD18C,2.600000*%
%ADD19R,1.700000X1.700000*%
G04 APERTURE END LIST*
D10*
%TO.C,L2*%
X101269800Y-141503400D03*
D11*
X101269800Y-131343400D03*
%TD*%
D12*
%TO.C,REF\u002A\u002A*%
X126500000Y-127500000D03*
%TD*%
%TO.C,REF\u002A\u002A*%
X126500000Y-156500000D03*
%TD*%
%TO.C,REF\u002A\u002A*%
X53500000Y-156500000D03*
%TD*%
%TO.C,REF\u002A\u002A*%
X53500000Y-127500000D03*
%TD*%
%TO.C,C1*%
G36*
G01*
X113021738Y-139825000D02*
X113978262Y-139825000D01*
G75*
G02*
X114250000Y-140096738I0J-271738D01*
G01*
X114250000Y-140803262D01*
G75*
G02*
X113978262Y-141075000I-271738J0D01*
G01*
X113021738Y-141075000D01*
G75*
G02*
X112750000Y-140803262I0J271738D01*
G01*
X112750000Y-140096738D01*
G75*
G02*
X113021738Y-139825000I271738J0D01*
G01*
G37*
G36*
G01*
X113021738Y-141875000D02*
X113978262Y-141875000D01*
G75*
G02*
X114250000Y-142146738I0J-271738D01*
G01*
X114250000Y-142853262D01*
G75*
G02*
X113978262Y-143125000I-271738J0D01*
G01*
X113021738Y-143125000D01*
G75*
G02*
X112750000Y-142853262I0J271738D01*
G01*
X112750000Y-142146738D01*
G75*
G02*
X113021738Y-141875000I271738J0D01*
G01*
G37*
%TD*%
%TO.C,C2*%
G36*
G01*
X102625000Y-144478262D02*
X102625000Y-143521738D01*
G75*
G02*
X102896738Y-143250000I271738J0D01*
G01*
X103603262Y-143250000D01*
G75*
G02*
X103875000Y-143521738I0J-271738D01*
G01*
X103875000Y-144478262D01*
G75*
G02*
X103603262Y-144750000I-271738J0D01*
G01*
X102896738Y-144750000D01*
G75*
G02*
X102625000Y-144478262I0J271738D01*
G01*
G37*
G36*
G01*
X100575000Y-144478262D02*
X100575000Y-143521738D01*
G75*
G02*
X100846738Y-143250000I271738J0D01*
G01*
X101553262Y-143250000D01*
G75*
G02*
X101825000Y-143521738I0J-271738D01*
G01*
X101825000Y-144478262D01*
G75*
G02*
X101553262Y-144750000I-271738J0D01*
G01*
X100846738Y-144750000D01*
G75*
G02*
X100575000Y-144478262I0J271738D01*
G01*
G37*
%TD*%
%TO.C,C3*%
G36*
G01*
X76482200Y-130540338D02*
X76482200Y-131496862D01*
G75*
G02*
X76210462Y-131768600I-271738J0D01*
G01*
X75503938Y-131768600D01*
G75*
G02*
X75232200Y-131496862I0J271738D01*
G01*
X75232200Y-130540338D01*
G75*
G02*
X75503938Y-130268600I271738J0D01*
G01*
X76210462Y-130268600D01*
G75*
G02*
X76482200Y-130540338I0J-271738D01*
G01*
G37*
G36*
G01*
X78532200Y-130540338D02*
X78532200Y-131496862D01*
G75*
G02*
X78260462Y-131768600I-271738J0D01*
G01*
X77553938Y-131768600D01*
G75*
G02*
X77282200Y-131496862I0J271738D01*
G01*
X77282200Y-130540338D01*
G75*
G02*
X77553938Y-130268600I271738J0D01*
G01*
X78260462Y-130268600D01*
G75*
G02*
X78532200Y-130540338I0J-271738D01*
G01*
G37*
%TD*%
%TO.C,C4*%
G36*
G01*
X119271738Y-135825000D02*
X120228262Y-135825000D01*
G75*
G02*
X120500000Y-136096738I0J-271738D01*
G01*
X120500000Y-136803262D01*
G75*
G02*
X120228262Y-137075000I-271738J0D01*
G01*
X119271738Y-137075000D01*
G75*
G02*
X119000000Y-136803262I0J271738D01*
G01*
X119000000Y-136096738D01*
G75*
G02*
X119271738Y-135825000I271738J0D01*
G01*
G37*
G36*
G01*
X119271738Y-137875000D02*
X120228262Y-137875000D01*
G75*
G02*
X120500000Y-138146738I0J-271738D01*
G01*
X120500000Y-138853262D01*
G75*
G02*
X120228262Y-139125000I-271738J0D01*
G01*
X119271738Y-139125000D01*
G75*
G02*
X119000000Y-138853262I0J271738D01*
G01*
X119000000Y-138146738D01*
G75*
G02*
X119271738Y-137875000I271738J0D01*
G01*
G37*
%TD*%
%TO.C,Co1*%
G36*
G01*
X105650000Y-126915625D02*
X105650000Y-128084375D01*
G75*
G02*
X105384375Y-128350000I-265625J0D01*
G01*
X103215625Y-128350000D01*
G75*
G02*
X102950000Y-128084375I0J265625D01*
G01*
X102950000Y-126915625D01*
G75*
G02*
X103215625Y-126650000I265625J0D01*
G01*
X105384375Y-126650000D01*
G75*
G02*
X105650000Y-126915625I0J-265625D01*
G01*
G37*
G36*
G01*
X102050000Y-126915625D02*
X102050000Y-128084375D01*
G75*
G02*
X101784375Y-128350000I-265625J0D01*
G01*
X99615625Y-128350000D01*
G75*
G02*
X99350000Y-128084375I0J265625D01*
G01*
X99350000Y-126915625D01*
G75*
G02*
X99615625Y-126650000I265625J0D01*
G01*
X101784375Y-126650000D01*
G75*
G02*
X102050000Y-126915625I0J-265625D01*
G01*
G37*
%TD*%
%TO.C,Ct1*%
G36*
G01*
X113875000Y-130021738D02*
X113875000Y-130978262D01*
G75*
G02*
X113603262Y-131250000I-271738J0D01*
G01*
X112896738Y-131250000D01*
G75*
G02*
X112625000Y-130978262I0J271738D01*
G01*
X112625000Y-130021738D01*
G75*
G02*
X112896738Y-129750000I271738J0D01*
G01*
X113603262Y-129750000D01*
G75*
G02*
X113875000Y-130021738I0J-271738D01*
G01*
G37*
G36*
G01*
X111825000Y-130021738D02*
X111825000Y-130978262D01*
G75*
G02*
X111553262Y-131250000I-271738J0D01*
G01*
X110846738Y-131250000D01*
G75*
G02*
X110575000Y-130978262I0J271738D01*
G01*
X110575000Y-130021738D01*
G75*
G02*
X110846738Y-129750000I271738J0D01*
G01*
X111553262Y-129750000D01*
G75*
G02*
X111825000Y-130021738I0J-271738D01*
G01*
G37*
%TD*%
D13*
%TO.C,D1*%
X107500000Y-141500000D03*
D14*
X107500000Y-131340000D03*
%TD*%
D15*
%TO.C,J1*%
X53840000Y-148040000D03*
D16*
X53840000Y-145500000D03*
X56380000Y-148040000D03*
X56380000Y-145500000D03*
X58920000Y-148040000D03*
X58920000Y-145500000D03*
X61460000Y-148040000D03*
X61460000Y-145500000D03*
X64000000Y-148040000D03*
X64000000Y-145500000D03*
%TD*%
D17*
%TO.C,J2*%
X75500000Y-155500000D03*
D18*
X80500000Y-155500000D03*
%TD*%
D17*
%TO.C,J3*%
X86500000Y-155500000D03*
D18*
X91500000Y-155500000D03*
%TD*%
%TO.C,J4*%
X125500000Y-135000000D03*
D17*
X125500000Y-140000000D03*
%TD*%
D11*
%TO.C,L1*%
X104250000Y-141500000D03*
D10*
X104250000Y-131340000D03*
%TD*%
D15*
%TO.C,LCd1*%
X58000000Y-126000000D03*
D16*
X60540000Y-126000000D03*
X63080000Y-126000000D03*
X65620000Y-126000000D03*
X68160000Y-126000000D03*
X70700000Y-126000000D03*
X73240000Y-126000000D03*
X75780000Y-126000000D03*
X78320000Y-126000000D03*
X80860000Y-126000000D03*
X83400000Y-126000000D03*
X85940000Y-126000000D03*
X88480000Y-126000000D03*
X91020000Y-126000000D03*
X93560000Y-126000000D03*
X96100000Y-126000000D03*
%TD*%
%TO.C,R1*%
G36*
G01*
X110771738Y-139825000D02*
X111728262Y-139825000D01*
G75*
G02*
X112000000Y-140096738I0J-271738D01*
G01*
X112000000Y-140803262D01*
G75*
G02*
X111728262Y-141075000I-271738J0D01*
G01*
X110771738Y-141075000D01*
G75*
G02*
X110500000Y-140803262I0J271738D01*
G01*
X110500000Y-140096738D01*
G75*
G02*
X110771738Y-139825000I271738J0D01*
G01*
G37*
G36*
G01*
X110771738Y-141875000D02*
X111728262Y-141875000D01*
G75*
G02*
X112000000Y-142146738I0J-271738D01*
G01*
X112000000Y-142853262D01*
G75*
G02*
X111728262Y-143125000I-271738J0D01*
G01*
X110771738Y-143125000D01*
G75*
G02*
X110500000Y-142853262I0J271738D01*
G01*
X110500000Y-142146738D01*
G75*
G02*
X110771738Y-141875000I271738J0D01*
G01*
G37*
%TD*%
%TO.C,R2*%
G36*
G01*
X106575000Y-127978262D02*
X106575000Y-127021738D01*
G75*
G02*
X106846738Y-126750000I271738J0D01*
G01*
X107553262Y-126750000D01*
G75*
G02*
X107825000Y-127021738I0J-271738D01*
G01*
X107825000Y-127978262D01*
G75*
G02*
X107553262Y-128250000I-271738J0D01*
G01*
X106846738Y-128250000D01*
G75*
G02*
X106575000Y-127978262I0J271738D01*
G01*
G37*
G36*
G01*
X108625000Y-127978262D02*
X108625000Y-127021738D01*
G75*
G02*
X108896738Y-126750000I271738J0D01*
G01*
X109603262Y-126750000D01*
G75*
G02*
X109875000Y-127021738I0J-271738D01*
G01*
X109875000Y-127978262D01*
G75*
G02*
X109603262Y-128250000I-271738J0D01*
G01*
X108896738Y-128250000D01*
G75*
G02*
X108625000Y-127978262I0J271738D01*
G01*
G37*
%TD*%
%TO.C,R3*%
G36*
G01*
X94100000Y-130521738D02*
X94100000Y-131478262D01*
G75*
G02*
X93828262Y-131750000I-271738J0D01*
G01*
X93121738Y-131750000D01*
G75*
G02*
X92850000Y-131478262I0J271738D01*
G01*
X92850000Y-130521738D01*
G75*
G02*
X93121738Y-130250000I271738J0D01*
G01*
X93828262Y-130250000D01*
G75*
G02*
X94100000Y-130521738I0J-271738D01*
G01*
G37*
G36*
G01*
X96150000Y-130521738D02*
X96150000Y-131478262D01*
G75*
G02*
X95878262Y-131750000I-271738J0D01*
G01*
X95171738Y-131750000D01*
G75*
G02*
X94900000Y-131478262I0J271738D01*
G01*
X94900000Y-130521738D01*
G75*
G02*
X95171738Y-130250000I271738J0D01*
G01*
X95878262Y-130250000D01*
G75*
G02*
X96150000Y-130521738I0J-271738D01*
G01*
G37*
%TD*%
%TO.C,R4*%
G36*
G01*
X59898000Y-129566462D02*
X59898000Y-128609938D01*
G75*
G02*
X60169738Y-128338200I271738J0D01*
G01*
X60876262Y-128338200D01*
G75*
G02*
X61148000Y-128609938I0J-271738D01*
G01*
X61148000Y-129566462D01*
G75*
G02*
X60876262Y-129838200I-271738J0D01*
G01*
X60169738Y-129838200D01*
G75*
G02*
X59898000Y-129566462I0J271738D01*
G01*
G37*
G36*
G01*
X61948000Y-129566462D02*
X61948000Y-128609938D01*
G75*
G02*
X62219738Y-128338200I271738J0D01*
G01*
X62926262Y-128338200D01*
G75*
G02*
X63198000Y-128609938I0J-271738D01*
G01*
X63198000Y-129566462D01*
G75*
G02*
X62926262Y-129838200I-271738J0D01*
G01*
X62219738Y-129838200D01*
G75*
G02*
X61948000Y-129566462I0J271738D01*
G01*
G37*
%TD*%
%TO.C,R5*%
G36*
G01*
X65973800Y-129561062D02*
X65973800Y-128604538D01*
G75*
G02*
X66245538Y-128332800I271738J0D01*
G01*
X66952062Y-128332800D01*
G75*
G02*
X67223800Y-128604538I0J-271738D01*
G01*
X67223800Y-129561062D01*
G75*
G02*
X66952062Y-129832800I-271738J0D01*
G01*
X66245538Y-129832800D01*
G75*
G02*
X65973800Y-129561062I0J271738D01*
G01*
G37*
G36*
G01*
X63923800Y-129561062D02*
X63923800Y-128604538D01*
G75*
G02*
X64195538Y-128332800I271738J0D01*
G01*
X64902062Y-128332800D01*
G75*
G02*
X65173800Y-128604538I0J-271738D01*
G01*
X65173800Y-129561062D01*
G75*
G02*
X64902062Y-129832800I-271738J0D01*
G01*
X64195538Y-129832800D01*
G75*
G02*
X63923800Y-129561062I0J271738D01*
G01*
G37*
%TD*%
%TO.C,R6*%
G36*
G01*
X81946200Y-148728262D02*
X81946200Y-147771738D01*
G75*
G02*
X82217938Y-147500000I271738J0D01*
G01*
X82924462Y-147500000D01*
G75*
G02*
X83196200Y-147771738I0J-271738D01*
G01*
X83196200Y-148728262D01*
G75*
G02*
X82924462Y-149000000I-271738J0D01*
G01*
X82217938Y-149000000D01*
G75*
G02*
X81946200Y-148728262I0J271738D01*
G01*
G37*
G36*
G01*
X79896200Y-148728262D02*
X79896200Y-147771738D01*
G75*
G02*
X80167938Y-147500000I271738J0D01*
G01*
X80874462Y-147500000D01*
G75*
G02*
X81146200Y-147771738I0J-271738D01*
G01*
X81146200Y-148728262D01*
G75*
G02*
X80874462Y-149000000I-271738J0D01*
G01*
X80167938Y-149000000D01*
G75*
G02*
X79896200Y-148728262I0J271738D01*
G01*
G37*
%TD*%
%TO.C,R7*%
G36*
G01*
X75825000Y-148728262D02*
X75825000Y-147771738D01*
G75*
G02*
X76096738Y-147500000I271738J0D01*
G01*
X76803262Y-147500000D01*
G75*
G02*
X77075000Y-147771738I0J-271738D01*
G01*
X77075000Y-148728262D01*
G75*
G02*
X76803262Y-149000000I-271738J0D01*
G01*
X76096738Y-149000000D01*
G75*
G02*
X75825000Y-148728262I0J271738D01*
G01*
G37*
G36*
G01*
X77875000Y-148728262D02*
X77875000Y-147771738D01*
G75*
G02*
X78146738Y-147500000I271738J0D01*
G01*
X78853262Y-147500000D01*
G75*
G02*
X79125000Y-147771738I0J-271738D01*
G01*
X79125000Y-148728262D01*
G75*
G02*
X78853262Y-149000000I-271738J0D01*
G01*
X78146738Y-149000000D01*
G75*
G02*
X77875000Y-148728262I0J271738D01*
G01*
G37*
%TD*%
%TO.C,R8*%
G36*
G01*
X88073000Y-147771738D02*
X88073000Y-148728262D01*
G75*
G02*
X87801262Y-149000000I-271738J0D01*
G01*
X87094738Y-149000000D01*
G75*
G02*
X86823000Y-148728262I0J271738D01*
G01*
X86823000Y-147771738D01*
G75*
G02*
X87094738Y-147500000I271738J0D01*
G01*
X87801262Y-147500000D01*
G75*
G02*
X88073000Y-147771738I0J-271738D01*
G01*
G37*
G36*
G01*
X86023000Y-147771738D02*
X86023000Y-148728262D01*
G75*
G02*
X85751262Y-149000000I-271738J0D01*
G01*
X85044738Y-149000000D01*
G75*
G02*
X84773000Y-148728262I0J271738D01*
G01*
X84773000Y-147771738D01*
G75*
G02*
X85044738Y-147500000I271738J0D01*
G01*
X85751262Y-147500000D01*
G75*
G02*
X86023000Y-147771738I0J-271738D01*
G01*
G37*
%TD*%
%TO.C,R9*%
G36*
G01*
X89978000Y-147771738D02*
X89978000Y-148728262D01*
G75*
G02*
X89706262Y-149000000I-271738J0D01*
G01*
X88999738Y-149000000D01*
G75*
G02*
X88728000Y-148728262I0J271738D01*
G01*
X88728000Y-147771738D01*
G75*
G02*
X88999738Y-147500000I271738J0D01*
G01*
X89706262Y-147500000D01*
G75*
G02*
X89978000Y-147771738I0J-271738D01*
G01*
G37*
G36*
G01*
X92028000Y-147771738D02*
X92028000Y-148728262D01*
G75*
G02*
X91756262Y-149000000I-271738J0D01*
G01*
X91049738Y-149000000D01*
G75*
G02*
X90778000Y-148728262I0J271738D01*
G01*
X90778000Y-147771738D01*
G75*
G02*
X91049738Y-147500000I271738J0D01*
G01*
X91756262Y-147500000D01*
G75*
G02*
X92028000Y-147771738I0J-271738D01*
G01*
G37*
%TD*%
%TO.C,Rsc1*%
G36*
G01*
X118375000Y-132521738D02*
X118375000Y-133478262D01*
G75*
G02*
X118103262Y-133750000I-271738J0D01*
G01*
X117396738Y-133750000D01*
G75*
G02*
X117125000Y-133478262I0J271738D01*
G01*
X117125000Y-132521738D01*
G75*
G02*
X117396738Y-132250000I271738J0D01*
G01*
X118103262Y-132250000D01*
G75*
G02*
X118375000Y-132521738I0J-271738D01*
G01*
G37*
G36*
G01*
X120425000Y-132521738D02*
X120425000Y-133478262D01*
G75*
G02*
X120153262Y-133750000I-271738J0D01*
G01*
X119446738Y-133750000D01*
G75*
G02*
X119175000Y-133478262I0J271738D01*
G01*
X119175000Y-132521738D01*
G75*
G02*
X119446738Y-132250000I271738J0D01*
G01*
X120153262Y-132250000D01*
G75*
G02*
X120425000Y-132521738I0J-271738D01*
G01*
G37*
%TD*%
%TO.C,U1*%
G36*
G01*
X114730000Y-132000000D02*
X115080000Y-132000000D01*
G75*
G02*
X115255000Y-132175000I0J-175000D01*
G01*
X115255000Y-133875000D01*
G75*
G02*
X115080000Y-134050000I-175000J0D01*
G01*
X114730000Y-134050000D01*
G75*
G02*
X114555000Y-133875000I0J175000D01*
G01*
X114555000Y-132175000D01*
G75*
G02*
X114730000Y-132000000I175000J0D01*
G01*
G37*
G36*
G01*
X113460000Y-132000000D02*
X113810000Y-132000000D01*
G75*
G02*
X113985000Y-132175000I0J-175000D01*
G01*
X113985000Y-133875000D01*
G75*
G02*
X113810000Y-134050000I-175000J0D01*
G01*
X113460000Y-134050000D01*
G75*
G02*
X113285000Y-133875000I0J175000D01*
G01*
X113285000Y-132175000D01*
G75*
G02*
X113460000Y-132000000I175000J0D01*
G01*
G37*
G36*
G01*
X112190000Y-132000000D02*
X112540000Y-132000000D01*
G75*
G02*
X112715000Y-132175000I0J-175000D01*
G01*
X112715000Y-133875000D01*
G75*
G02*
X112540000Y-134050000I-175000J0D01*
G01*
X112190000Y-134050000D01*
G75*
G02*
X112015000Y-133875000I0J175000D01*
G01*
X112015000Y-132175000D01*
G75*
G02*
X112190000Y-132000000I175000J0D01*
G01*
G37*
G36*
G01*
X110920000Y-132000000D02*
X111270000Y-132000000D01*
G75*
G02*
X111445000Y-132175000I0J-175000D01*
G01*
X111445000Y-133875000D01*
G75*
G02*
X111270000Y-134050000I-175000J0D01*
G01*
X110920000Y-134050000D01*
G75*
G02*
X110745000Y-133875000I0J175000D01*
G01*
X110745000Y-132175000D01*
G75*
G02*
X110920000Y-132000000I175000J0D01*
G01*
G37*
G36*
G01*
X110920000Y-136950000D02*
X111270000Y-136950000D01*
G75*
G02*
X111445000Y-137125000I0J-175000D01*
G01*
X111445000Y-138825000D01*
G75*
G02*
X111270000Y-139000000I-175000J0D01*
G01*
X110920000Y-139000000D01*
G75*
G02*
X110745000Y-138825000I0J175000D01*
G01*
X110745000Y-137125000D01*
G75*
G02*
X110920000Y-136950000I175000J0D01*
G01*
G37*
G36*
G01*
X112190000Y-136950000D02*
X112540000Y-136950000D01*
G75*
G02*
X112715000Y-137125000I0J-175000D01*
G01*
X112715000Y-138825000D01*
G75*
G02*
X112540000Y-139000000I-175000J0D01*
G01*
X112190000Y-139000000D01*
G75*
G02*
X112015000Y-138825000I0J175000D01*
G01*
X112015000Y-137125000D01*
G75*
G02*
X112190000Y-136950000I175000J0D01*
G01*
G37*
G36*
G01*
X113460000Y-136950000D02*
X113810000Y-136950000D01*
G75*
G02*
X113985000Y-137125000I0J-175000D01*
G01*
X113985000Y-138825000D01*
G75*
G02*
X113810000Y-139000000I-175000J0D01*
G01*
X113460000Y-139000000D01*
G75*
G02*
X113285000Y-138825000I0J175000D01*
G01*
X113285000Y-137125000D01*
G75*
G02*
X113460000Y-136950000I175000J0D01*
G01*
G37*
G36*
G01*
X114730000Y-136950000D02*
X115080000Y-136950000D01*
G75*
G02*
X115255000Y-137125000I0J-175000D01*
G01*
X115255000Y-138825000D01*
G75*
G02*
X115080000Y-139000000I-175000J0D01*
G01*
X114730000Y-139000000D01*
G75*
G02*
X114555000Y-138825000I0J175000D01*
G01*
X114555000Y-137125000D01*
G75*
G02*
X114730000Y-136950000I175000J0D01*
G01*
G37*
%TD*%
D19*
%TO.C,U2*%
X93500000Y-133500000D03*
D10*
X60480000Y-141120000D03*
X90960000Y-133500000D03*
X63020000Y-141120000D03*
X88420000Y-133500000D03*
X65560000Y-141120000D03*
X85880000Y-133500000D03*
X68100000Y-141120000D03*
X83340000Y-133500000D03*
X70640000Y-141120000D03*
X80800000Y-133500000D03*
X73180000Y-141120000D03*
X78260000Y-133500000D03*
X75720000Y-141120000D03*
X75720000Y-133500000D03*
X78260000Y-141120000D03*
X73180000Y-133500000D03*
X80800000Y-141120000D03*
X70640000Y-133500000D03*
X83340000Y-141120000D03*
X68100000Y-133500000D03*
X85880000Y-141120000D03*
X65560000Y-133500000D03*
X88420000Y-141120000D03*
X63020000Y-133500000D03*
X90960000Y-141120000D03*
X60480000Y-133500000D03*
X93500000Y-141120000D03*
%TD*%
M02*
