%TF.GenerationSoftware,KiCad,Pcbnew,5.1.6*%
%TF.CreationDate,2020-08-16T16:00:55+02:00*%
%TF.ProjectId,volume_detection,766f6c75-6d65-45f6-9465-74656374696f,rev?*%
%TF.SameCoordinates,Original*%
%TF.FileFunction,Paste,Top*%
%TF.FilePolarity,Positive*%
%FSLAX46Y46*%
G04 Gerber Fmt 4.6, Leading zero omitted, Abs format (unit mm)*
G04 Created by KiCad (PCBNEW 5.1.6) date 2020-08-16 16:00:55*
%MOMM*%
%LPD*%
G01*
G04 APERTURE LIST*
G04 APERTURE END LIST*
%TO.C,C1*%
G36*
G01*
X113049999Y-139875000D02*
X113950001Y-139875000D01*
G75*
G02*
X114200000Y-140124999I0J-249999D01*
G01*
X114200000Y-140775001D01*
G75*
G02*
X113950001Y-141025000I-249999J0D01*
G01*
X113049999Y-141025000D01*
G75*
G02*
X112800000Y-140775001I0J249999D01*
G01*
X112800000Y-140124999D01*
G75*
G02*
X113049999Y-139875000I249999J0D01*
G01*
G37*
G36*
G01*
X113049999Y-141925000D02*
X113950001Y-141925000D01*
G75*
G02*
X114200000Y-142174999I0J-249999D01*
G01*
X114200000Y-142825001D01*
G75*
G02*
X113950001Y-143075000I-249999J0D01*
G01*
X113049999Y-143075000D01*
G75*
G02*
X112800000Y-142825001I0J249999D01*
G01*
X112800000Y-142174999D01*
G75*
G02*
X113049999Y-141925000I249999J0D01*
G01*
G37*
%TD*%
%TO.C,C2*%
G36*
G01*
X102675000Y-144450001D02*
X102675000Y-143549999D01*
G75*
G02*
X102924999Y-143300000I249999J0D01*
G01*
X103575001Y-143300000D01*
G75*
G02*
X103825000Y-143549999I0J-249999D01*
G01*
X103825000Y-144450001D01*
G75*
G02*
X103575001Y-144700000I-249999J0D01*
G01*
X102924999Y-144700000D01*
G75*
G02*
X102675000Y-144450001I0J249999D01*
G01*
G37*
G36*
G01*
X100625000Y-144450001D02*
X100625000Y-143549999D01*
G75*
G02*
X100874999Y-143300000I249999J0D01*
G01*
X101525001Y-143300000D01*
G75*
G02*
X101775000Y-143549999I0J-249999D01*
G01*
X101775000Y-144450001D01*
G75*
G02*
X101525001Y-144700000I-249999J0D01*
G01*
X100874999Y-144700000D01*
G75*
G02*
X100625000Y-144450001I0J249999D01*
G01*
G37*
%TD*%
%TO.C,C3*%
G36*
G01*
X76432200Y-130568599D02*
X76432200Y-131468601D01*
G75*
G02*
X76182201Y-131718600I-249999J0D01*
G01*
X75532199Y-131718600D01*
G75*
G02*
X75282200Y-131468601I0J249999D01*
G01*
X75282200Y-130568599D01*
G75*
G02*
X75532199Y-130318600I249999J0D01*
G01*
X76182201Y-130318600D01*
G75*
G02*
X76432200Y-130568599I0J-249999D01*
G01*
G37*
G36*
G01*
X78482200Y-130568599D02*
X78482200Y-131468601D01*
G75*
G02*
X78232201Y-131718600I-249999J0D01*
G01*
X77582199Y-131718600D01*
G75*
G02*
X77332200Y-131468601I0J249999D01*
G01*
X77332200Y-130568599D01*
G75*
G02*
X77582199Y-130318600I249999J0D01*
G01*
X78232201Y-130318600D01*
G75*
G02*
X78482200Y-130568599I0J-249999D01*
G01*
G37*
%TD*%
%TO.C,C4*%
G36*
G01*
X119299999Y-135875000D02*
X120200001Y-135875000D01*
G75*
G02*
X120450000Y-136124999I0J-249999D01*
G01*
X120450000Y-136775001D01*
G75*
G02*
X120200001Y-137025000I-249999J0D01*
G01*
X119299999Y-137025000D01*
G75*
G02*
X119050000Y-136775001I0J249999D01*
G01*
X119050000Y-136124999D01*
G75*
G02*
X119299999Y-135875000I249999J0D01*
G01*
G37*
G36*
G01*
X119299999Y-137925000D02*
X120200001Y-137925000D01*
G75*
G02*
X120450000Y-138174999I0J-249999D01*
G01*
X120450000Y-138825001D01*
G75*
G02*
X120200001Y-139075000I-249999J0D01*
G01*
X119299999Y-139075000D01*
G75*
G02*
X119050000Y-138825001I0J249999D01*
G01*
X119050000Y-138174999D01*
G75*
G02*
X119299999Y-137925000I249999J0D01*
G01*
G37*
%TD*%
%TO.C,Co1*%
G36*
G01*
X105600000Y-126950000D02*
X105600000Y-128050000D01*
G75*
G02*
X105350000Y-128300000I-250000J0D01*
G01*
X103250000Y-128300000D01*
G75*
G02*
X103000000Y-128050000I0J250000D01*
G01*
X103000000Y-126950000D01*
G75*
G02*
X103250000Y-126700000I250000J0D01*
G01*
X105350000Y-126700000D01*
G75*
G02*
X105600000Y-126950000I0J-250000D01*
G01*
G37*
G36*
G01*
X102000000Y-126950000D02*
X102000000Y-128050000D01*
G75*
G02*
X101750000Y-128300000I-250000J0D01*
G01*
X99650000Y-128300000D01*
G75*
G02*
X99400000Y-128050000I0J250000D01*
G01*
X99400000Y-126950000D01*
G75*
G02*
X99650000Y-126700000I250000J0D01*
G01*
X101750000Y-126700000D01*
G75*
G02*
X102000000Y-126950000I0J-250000D01*
G01*
G37*
%TD*%
%TO.C,Ct1*%
G36*
G01*
X113825000Y-130049999D02*
X113825000Y-130950001D01*
G75*
G02*
X113575001Y-131200000I-249999J0D01*
G01*
X112924999Y-131200000D01*
G75*
G02*
X112675000Y-130950001I0J249999D01*
G01*
X112675000Y-130049999D01*
G75*
G02*
X112924999Y-129800000I249999J0D01*
G01*
X113575001Y-129800000D01*
G75*
G02*
X113825000Y-130049999I0J-249999D01*
G01*
G37*
G36*
G01*
X111775000Y-130049999D02*
X111775000Y-130950001D01*
G75*
G02*
X111525001Y-131200000I-249999J0D01*
G01*
X110874999Y-131200000D01*
G75*
G02*
X110625000Y-130950001I0J249999D01*
G01*
X110625000Y-130049999D01*
G75*
G02*
X110874999Y-129800000I249999J0D01*
G01*
X111525001Y-129800000D01*
G75*
G02*
X111775000Y-130049999I0J-249999D01*
G01*
G37*
%TD*%
%TO.C,R1*%
G36*
G01*
X110799999Y-139875000D02*
X111700001Y-139875000D01*
G75*
G02*
X111950000Y-140124999I0J-249999D01*
G01*
X111950000Y-140775001D01*
G75*
G02*
X111700001Y-141025000I-249999J0D01*
G01*
X110799999Y-141025000D01*
G75*
G02*
X110550000Y-140775001I0J249999D01*
G01*
X110550000Y-140124999D01*
G75*
G02*
X110799999Y-139875000I249999J0D01*
G01*
G37*
G36*
G01*
X110799999Y-141925000D02*
X111700001Y-141925000D01*
G75*
G02*
X111950000Y-142174999I0J-249999D01*
G01*
X111950000Y-142825001D01*
G75*
G02*
X111700001Y-143075000I-249999J0D01*
G01*
X110799999Y-143075000D01*
G75*
G02*
X110550000Y-142825001I0J249999D01*
G01*
X110550000Y-142174999D01*
G75*
G02*
X110799999Y-141925000I249999J0D01*
G01*
G37*
%TD*%
%TO.C,R2*%
G36*
G01*
X106625000Y-127950001D02*
X106625000Y-127049999D01*
G75*
G02*
X106874999Y-126800000I249999J0D01*
G01*
X107525001Y-126800000D01*
G75*
G02*
X107775000Y-127049999I0J-249999D01*
G01*
X107775000Y-127950001D01*
G75*
G02*
X107525001Y-128200000I-249999J0D01*
G01*
X106874999Y-128200000D01*
G75*
G02*
X106625000Y-127950001I0J249999D01*
G01*
G37*
G36*
G01*
X108675000Y-127950001D02*
X108675000Y-127049999D01*
G75*
G02*
X108924999Y-126800000I249999J0D01*
G01*
X109575001Y-126800000D01*
G75*
G02*
X109825000Y-127049999I0J-249999D01*
G01*
X109825000Y-127950001D01*
G75*
G02*
X109575001Y-128200000I-249999J0D01*
G01*
X108924999Y-128200000D01*
G75*
G02*
X108675000Y-127950001I0J249999D01*
G01*
G37*
%TD*%
%TO.C,R3*%
G36*
G01*
X94050000Y-130549999D02*
X94050000Y-131450001D01*
G75*
G02*
X93800001Y-131700000I-249999J0D01*
G01*
X93149999Y-131700000D01*
G75*
G02*
X92900000Y-131450001I0J249999D01*
G01*
X92900000Y-130549999D01*
G75*
G02*
X93149999Y-130300000I249999J0D01*
G01*
X93800001Y-130300000D01*
G75*
G02*
X94050000Y-130549999I0J-249999D01*
G01*
G37*
G36*
G01*
X96100000Y-130549999D02*
X96100000Y-131450001D01*
G75*
G02*
X95850001Y-131700000I-249999J0D01*
G01*
X95199999Y-131700000D01*
G75*
G02*
X94950000Y-131450001I0J249999D01*
G01*
X94950000Y-130549999D01*
G75*
G02*
X95199999Y-130300000I249999J0D01*
G01*
X95850001Y-130300000D01*
G75*
G02*
X96100000Y-130549999I0J-249999D01*
G01*
G37*
%TD*%
%TO.C,R4*%
G36*
G01*
X59948000Y-129538201D02*
X59948000Y-128638199D01*
G75*
G02*
X60197999Y-128388200I249999J0D01*
G01*
X60848001Y-128388200D01*
G75*
G02*
X61098000Y-128638199I0J-249999D01*
G01*
X61098000Y-129538201D01*
G75*
G02*
X60848001Y-129788200I-249999J0D01*
G01*
X60197999Y-129788200D01*
G75*
G02*
X59948000Y-129538201I0J249999D01*
G01*
G37*
G36*
G01*
X61998000Y-129538201D02*
X61998000Y-128638199D01*
G75*
G02*
X62247999Y-128388200I249999J0D01*
G01*
X62898001Y-128388200D01*
G75*
G02*
X63148000Y-128638199I0J-249999D01*
G01*
X63148000Y-129538201D01*
G75*
G02*
X62898001Y-129788200I-249999J0D01*
G01*
X62247999Y-129788200D01*
G75*
G02*
X61998000Y-129538201I0J249999D01*
G01*
G37*
%TD*%
%TO.C,R5*%
G36*
G01*
X66023800Y-129532801D02*
X66023800Y-128632799D01*
G75*
G02*
X66273799Y-128382800I249999J0D01*
G01*
X66923801Y-128382800D01*
G75*
G02*
X67173800Y-128632799I0J-249999D01*
G01*
X67173800Y-129532801D01*
G75*
G02*
X66923801Y-129782800I-249999J0D01*
G01*
X66273799Y-129782800D01*
G75*
G02*
X66023800Y-129532801I0J249999D01*
G01*
G37*
G36*
G01*
X63973800Y-129532801D02*
X63973800Y-128632799D01*
G75*
G02*
X64223799Y-128382800I249999J0D01*
G01*
X64873801Y-128382800D01*
G75*
G02*
X65123800Y-128632799I0J-249999D01*
G01*
X65123800Y-129532801D01*
G75*
G02*
X64873801Y-129782800I-249999J0D01*
G01*
X64223799Y-129782800D01*
G75*
G02*
X63973800Y-129532801I0J249999D01*
G01*
G37*
%TD*%
%TO.C,R6*%
G36*
G01*
X81996200Y-148700001D02*
X81996200Y-147799999D01*
G75*
G02*
X82246199Y-147550000I249999J0D01*
G01*
X82896201Y-147550000D01*
G75*
G02*
X83146200Y-147799999I0J-249999D01*
G01*
X83146200Y-148700001D01*
G75*
G02*
X82896201Y-148950000I-249999J0D01*
G01*
X82246199Y-148950000D01*
G75*
G02*
X81996200Y-148700001I0J249999D01*
G01*
G37*
G36*
G01*
X79946200Y-148700001D02*
X79946200Y-147799999D01*
G75*
G02*
X80196199Y-147550000I249999J0D01*
G01*
X80846201Y-147550000D01*
G75*
G02*
X81096200Y-147799999I0J-249999D01*
G01*
X81096200Y-148700001D01*
G75*
G02*
X80846201Y-148950000I-249999J0D01*
G01*
X80196199Y-148950000D01*
G75*
G02*
X79946200Y-148700001I0J249999D01*
G01*
G37*
%TD*%
%TO.C,R7*%
G36*
G01*
X75875000Y-148700001D02*
X75875000Y-147799999D01*
G75*
G02*
X76124999Y-147550000I249999J0D01*
G01*
X76775001Y-147550000D01*
G75*
G02*
X77025000Y-147799999I0J-249999D01*
G01*
X77025000Y-148700001D01*
G75*
G02*
X76775001Y-148950000I-249999J0D01*
G01*
X76124999Y-148950000D01*
G75*
G02*
X75875000Y-148700001I0J249999D01*
G01*
G37*
G36*
G01*
X77925000Y-148700001D02*
X77925000Y-147799999D01*
G75*
G02*
X78174999Y-147550000I249999J0D01*
G01*
X78825001Y-147550000D01*
G75*
G02*
X79075000Y-147799999I0J-249999D01*
G01*
X79075000Y-148700001D01*
G75*
G02*
X78825001Y-148950000I-249999J0D01*
G01*
X78174999Y-148950000D01*
G75*
G02*
X77925000Y-148700001I0J249999D01*
G01*
G37*
%TD*%
%TO.C,R8*%
G36*
G01*
X88023000Y-147799999D02*
X88023000Y-148700001D01*
G75*
G02*
X87773001Y-148950000I-249999J0D01*
G01*
X87122999Y-148950000D01*
G75*
G02*
X86873000Y-148700001I0J249999D01*
G01*
X86873000Y-147799999D01*
G75*
G02*
X87122999Y-147550000I249999J0D01*
G01*
X87773001Y-147550000D01*
G75*
G02*
X88023000Y-147799999I0J-249999D01*
G01*
G37*
G36*
G01*
X85973000Y-147799999D02*
X85973000Y-148700001D01*
G75*
G02*
X85723001Y-148950000I-249999J0D01*
G01*
X85072999Y-148950000D01*
G75*
G02*
X84823000Y-148700001I0J249999D01*
G01*
X84823000Y-147799999D01*
G75*
G02*
X85072999Y-147550000I249999J0D01*
G01*
X85723001Y-147550000D01*
G75*
G02*
X85973000Y-147799999I0J-249999D01*
G01*
G37*
%TD*%
%TO.C,R9*%
G36*
G01*
X89928000Y-147799999D02*
X89928000Y-148700001D01*
G75*
G02*
X89678001Y-148950000I-249999J0D01*
G01*
X89027999Y-148950000D01*
G75*
G02*
X88778000Y-148700001I0J249999D01*
G01*
X88778000Y-147799999D01*
G75*
G02*
X89027999Y-147550000I249999J0D01*
G01*
X89678001Y-147550000D01*
G75*
G02*
X89928000Y-147799999I0J-249999D01*
G01*
G37*
G36*
G01*
X91978000Y-147799999D02*
X91978000Y-148700001D01*
G75*
G02*
X91728001Y-148950000I-249999J0D01*
G01*
X91077999Y-148950000D01*
G75*
G02*
X90828000Y-148700001I0J249999D01*
G01*
X90828000Y-147799999D01*
G75*
G02*
X91077999Y-147550000I249999J0D01*
G01*
X91728001Y-147550000D01*
G75*
G02*
X91978000Y-147799999I0J-249999D01*
G01*
G37*
%TD*%
%TO.C,Rsc1*%
G36*
G01*
X118325000Y-132549999D02*
X118325000Y-133450001D01*
G75*
G02*
X118075001Y-133700000I-249999J0D01*
G01*
X117424999Y-133700000D01*
G75*
G02*
X117175000Y-133450001I0J249999D01*
G01*
X117175000Y-132549999D01*
G75*
G02*
X117424999Y-132300000I249999J0D01*
G01*
X118075001Y-132300000D01*
G75*
G02*
X118325000Y-132549999I0J-249999D01*
G01*
G37*
G36*
G01*
X120375000Y-132549999D02*
X120375000Y-133450001D01*
G75*
G02*
X120125001Y-133700000I-249999J0D01*
G01*
X119474999Y-133700000D01*
G75*
G02*
X119225000Y-133450001I0J249999D01*
G01*
X119225000Y-132549999D01*
G75*
G02*
X119474999Y-132300000I249999J0D01*
G01*
X120125001Y-132300000D01*
G75*
G02*
X120375000Y-132549999I0J-249999D01*
G01*
G37*
%TD*%
%TO.C,U1*%
G36*
G01*
X114755000Y-132050000D02*
X115055000Y-132050000D01*
G75*
G02*
X115205000Y-132200000I0J-150000D01*
G01*
X115205000Y-133850000D01*
G75*
G02*
X115055000Y-134000000I-150000J0D01*
G01*
X114755000Y-134000000D01*
G75*
G02*
X114605000Y-133850000I0J150000D01*
G01*
X114605000Y-132200000D01*
G75*
G02*
X114755000Y-132050000I150000J0D01*
G01*
G37*
G36*
G01*
X113485000Y-132050000D02*
X113785000Y-132050000D01*
G75*
G02*
X113935000Y-132200000I0J-150000D01*
G01*
X113935000Y-133850000D01*
G75*
G02*
X113785000Y-134000000I-150000J0D01*
G01*
X113485000Y-134000000D01*
G75*
G02*
X113335000Y-133850000I0J150000D01*
G01*
X113335000Y-132200000D01*
G75*
G02*
X113485000Y-132050000I150000J0D01*
G01*
G37*
G36*
G01*
X112215000Y-132050000D02*
X112515000Y-132050000D01*
G75*
G02*
X112665000Y-132200000I0J-150000D01*
G01*
X112665000Y-133850000D01*
G75*
G02*
X112515000Y-134000000I-150000J0D01*
G01*
X112215000Y-134000000D01*
G75*
G02*
X112065000Y-133850000I0J150000D01*
G01*
X112065000Y-132200000D01*
G75*
G02*
X112215000Y-132050000I150000J0D01*
G01*
G37*
G36*
G01*
X110945000Y-132050000D02*
X111245000Y-132050000D01*
G75*
G02*
X111395000Y-132200000I0J-150000D01*
G01*
X111395000Y-133850000D01*
G75*
G02*
X111245000Y-134000000I-150000J0D01*
G01*
X110945000Y-134000000D01*
G75*
G02*
X110795000Y-133850000I0J150000D01*
G01*
X110795000Y-132200000D01*
G75*
G02*
X110945000Y-132050000I150000J0D01*
G01*
G37*
G36*
G01*
X110945000Y-137000000D02*
X111245000Y-137000000D01*
G75*
G02*
X111395000Y-137150000I0J-150000D01*
G01*
X111395000Y-138800000D01*
G75*
G02*
X111245000Y-138950000I-150000J0D01*
G01*
X110945000Y-138950000D01*
G75*
G02*
X110795000Y-138800000I0J150000D01*
G01*
X110795000Y-137150000D01*
G75*
G02*
X110945000Y-137000000I150000J0D01*
G01*
G37*
G36*
G01*
X112215000Y-137000000D02*
X112515000Y-137000000D01*
G75*
G02*
X112665000Y-137150000I0J-150000D01*
G01*
X112665000Y-138800000D01*
G75*
G02*
X112515000Y-138950000I-150000J0D01*
G01*
X112215000Y-138950000D01*
G75*
G02*
X112065000Y-138800000I0J150000D01*
G01*
X112065000Y-137150000D01*
G75*
G02*
X112215000Y-137000000I150000J0D01*
G01*
G37*
G36*
G01*
X113485000Y-137000000D02*
X113785000Y-137000000D01*
G75*
G02*
X113935000Y-137150000I0J-150000D01*
G01*
X113935000Y-138800000D01*
G75*
G02*
X113785000Y-138950000I-150000J0D01*
G01*
X113485000Y-138950000D01*
G75*
G02*
X113335000Y-138800000I0J150000D01*
G01*
X113335000Y-137150000D01*
G75*
G02*
X113485000Y-137000000I150000J0D01*
G01*
G37*
G36*
G01*
X114755000Y-137000000D02*
X115055000Y-137000000D01*
G75*
G02*
X115205000Y-137150000I0J-150000D01*
G01*
X115205000Y-138800000D01*
G75*
G02*
X115055000Y-138950000I-150000J0D01*
G01*
X114755000Y-138950000D01*
G75*
G02*
X114605000Y-138800000I0J150000D01*
G01*
X114605000Y-137150000D01*
G75*
G02*
X114755000Y-137000000I150000J0D01*
G01*
G37*
%TD*%
M02*
